<svg width="23" height="23" viewBox="0 0 23 23" fill="none" xmlns="http://www.w3.org/2000/svg">
<path d="M11.0105 0C4.93906 0 0 4.98247 0 11.1073C0 17.2321 4.93906 22.2146 11.0105 22.2146C17.082 22.2146 22.021 17.2321 22.021 11.1073C22.021 4.98247 17.082 0 11.0105 0ZM11.0105 19.5708C6.38485 19.5708 2.62077 15.7736 2.62077 11.1073C2.62077 6.44097 6.38485 2.64381 11.0105 2.64381C15.6362 2.64381 19.4002 6.44097 19.4002 11.1073C19.4002 15.7736 15.6362 19.5708 11.0105 19.5708Z" fill="#2C2C2C"/>
<path d="M14.2103 6.21908L6.13281 14.3676L7.98598 16.237L16.0635 8.08853L14.2103 6.21908Z" fill="#2C2C2C"/>
<path d="M7.9771 9.5329C8.78102 9.5329 9.43272 8.87547 9.43272 8.06448C9.43272 7.2535 8.78102 6.59607 7.9771 6.59607C7.17319 6.59607 6.52148 7.2535 6.52148 8.06448C6.52148 8.87547 7.17319 9.5329 7.9771 9.5329Z" fill="#2C2C2C"/>
<path d="M14.5113 16.1247C15.3152 16.1247 15.9669 15.4673 15.9669 14.6563C15.9669 13.8453 15.3152 13.1879 14.5113 13.1879C13.7074 13.1879 13.0557 13.8453 13.0557 14.6563C13.0557 15.4673 13.7074 16.1247 14.5113 16.1247Z" fill="#2C2C2C"/>
</svg>
