<svg width="112" height="24" viewBox="0 0 112 24" fill="none" xmlns="http://www.w3.org/2000/svg">
<mask id="mask0_8141_9128" style="mask-type:luminance" maskUnits="userSpaceOnUse" x="0" y="5" width="112" height="14">
<path d="M112 5H0V18.8133H112V5Z" fill="white"/>
</mask>
<g mask="url(#mask0_8141_9128)">
<path d="M8.64588 12.3753C7.95222 12.3753 7.40721 12.918 7.40721 13.6086C7.40721 14.2993 7.95222 14.842 8.64588 14.842C9.33953 14.842 9.88454 14.2993 9.88454 13.6086C9.85977 12.918 9.31475 12.3753 8.64588 12.3753ZM4.92988 8.7C4.23623 8.7 3.69122 9.2426 3.69122 9.9333C3.69122 10.624 4.23623 11.1666 4.92988 11.1666C5.62353 11.1666 6.16855 10.624 6.16855 9.9333C6.16855 9.2426 5.62353 8.7 4.92988 8.7ZM4.92988 16.0753C4.23623 16.0753 3.69122 16.618 3.69122 17.3086C3.69122 17.9993 4.23623 18.542 4.92988 18.542C5.62353 18.542 6.16855 17.9993 6.16855 17.3086C6.16855 16.618 5.62353 16.0753 4.92988 16.0753ZM4.92988 12.3753C4.23623 12.3753 3.69122 12.918 3.69122 13.6086C3.69122 14.2993 4.23623 14.842 4.92988 14.842C5.62353 14.842 6.16855 14.2993 6.16855 13.6086C6.16855 12.918 5.62353 12.3753 4.92988 12.3753ZM1.23866 12.3753C0.545012 12.3753 0 12.918 0 13.6086C0 14.2993 0.545012 14.842 1.23866 14.842C1.93232 14.842 2.47733 14.2993 2.47733 13.6086C2.47733 12.918 1.90754 12.3753 1.23866 12.3753ZM109.919 18.5173H112V5.1726H109.919V18.5173ZM87.1524 18.5173H89.2086V8.7H87.1524V18.5173ZM88.1681 5C87.4745 5 86.9294 5.5426 86.9294 6.2333C86.9294 6.924 87.4745 7.4666 88.1681 7.4666C88.8618 7.4666 89.4068 6.924 89.4068 6.2333C89.4068 5.5426 88.8618 5 88.1681 5ZM106.054 14.8173C106.054 16.3713 105.163 17.3333 103.726 17.3333C102.561 17.3333 101.942 16.7166 101.942 15.7546C101.942 14.6693 102.685 14.028 104.345 14.028H106.079V14.8173H106.054ZM104.073 8.404C102.438 8.404 101.298 8.9713 100.431 9.7113V11.2653C101.273 10.328 102.314 9.884 103.503 9.884C105.063 9.884 106.054 10.7473 106.054 12.4986V12.8933H104.196C101.273 12.8933 99.8363 14.102 99.8363 15.8533C99.8363 17.5306 101.149 18.8133 103.007 18.8133C104.518 18.8133 105.534 18.0486 106.054 16.9633V18.5666H108.111V12.4C108.135 9.8593 106.649 8.404 104.073 8.404ZM67.532 12.3753C67.7797 10.8213 68.6715 9.736 70.1579 9.736C71.5205 9.736 72.4618 10.624 72.5114 12.3753H67.532ZM70.2322 8.404C67.2347 8.404 65.2776 10.5253 65.2776 13.5346C65.2776 16.7166 67.4824 18.8133 70.6038 18.8133C72.1646 18.8133 73.4776 18.2706 74.2455 17.4813V16.2233C73.5023 16.9386 72.3132 17.358 71.1489 17.358C69.0184 17.358 67.532 16.0753 67.4329 13.5593H74.5676V12.918C74.5676 10.0566 72.8582 8.404 70.2322 8.404ZM96.0956 17.358C93.8907 17.358 92.7016 15.7053 92.7016 13.584C92.7016 11.3886 93.9898 9.884 96.046 9.884C97.136 9.884 98.0774 10.3033 98.8702 11.2406V9.6866C98.1517 8.8973 97.0369 8.3793 95.6249 8.3793C92.6273 8.3793 90.4968 10.6486 90.4968 13.584C90.4968 16.5193 92.6273 18.7886 95.6001 18.7886C96.8635 18.7886 98.0031 18.3693 98.994 17.3826V16.026C98.2756 16.8646 97.1856 17.358 96.0956 17.358ZM80.4141 17.3086C78.7543 17.3086 77.689 15.8533 77.689 13.658C77.689 11.4133 78.779 9.884 80.4884 9.884C82.2225 9.884 83.263 11.3886 83.263 13.5593C83.2878 15.7546 82.1234 17.3086 80.4141 17.3086ZM83.2382 10.5253C82.6189 9.1686 81.5041 8.404 79.9929 8.404C77.466 8.404 75.4594 10.6733 75.4594 13.7073C75.4594 16.6673 77.3174 18.838 79.7947 18.838C81.5041 18.838 82.6932 17.8513 83.2382 16.5193V18.542H85.2944V5.1726H83.2382V10.5253ZM30.0252 8.404C28.3902 8.404 27.3249 9.292 26.7799 10.6486V8.7H24.7237V18.5173H26.7799V13.1153C26.7799 11.29 27.6965 10.106 29.3068 10.106C30.7684 10.106 31.4125 10.994 31.4125 12.8193V18.5173H33.4687V12.3753C33.4687 9.8593 32.1062 8.404 30.0252 8.404ZM18.5056 17.4566C16.8211 17.4566 15.8054 15.952 15.8054 13.6333C15.8054 11.29 16.8211 9.7853 18.5056 9.7853C20.2398 9.7853 21.2555 11.29 21.2555 13.6333C21.2555 15.952 20.215 17.4566 18.5056 17.4566ZM18.5056 8.404C15.6567 8.404 13.5758 10.6733 13.5758 13.6086C13.5758 16.5686 15.6567 18.8133 18.5056 18.8133C21.3793 18.8133 23.4603 16.5686 23.4603 13.6086C23.4603 10.6733 21.3793 8.404 18.5056 8.404ZM36.9617 12.3753C37.2095 10.8213 38.1013 9.736 39.6125 9.736C40.975 9.736 41.9164 10.624 41.9412 12.3753H36.9617ZM39.662 8.404C36.6645 8.404 34.7321 10.5253 34.7321 13.5346C34.7321 16.7166 36.9122 18.8133 40.0584 18.8133C41.6191 18.8133 42.9321 18.2706 43.7248 17.4813V16.2233C42.9569 16.9386 41.7925 17.358 40.6282 17.358C38.4977 17.358 36.9865 16.0753 36.9122 13.5593H44.0221V12.918C43.9973 10.0566 42.288 8.404 39.662 8.404ZM60.967 8.404C59.6045 8.404 58.564 9.1933 57.9943 10.5006C57.5731 9.1686 56.5079 8.404 55.1949 8.404C53.8571 8.404 52.9405 9.1933 52.445 10.4513V8.7H50.3641V18.5173H52.445V12.6466C52.445 11.142 53.213 10.0813 54.4517 10.0813C55.616 10.0813 56.1858 10.8706 56.1858 12.3753V18.542H58.242V12.474C58.242 11.068 59.01 10.0813 60.2734 10.0813C61.4377 10.0813 61.9827 10.8706 61.9827 12.4246V18.5173H64.0389V12.0546C64.0389 9.7606 62.8498 8.404 60.967 8.404Z" fill="#2C2C2C" fill-opacity="0.5"/>
</g>
</svg>
