<svg width="245" height="56" viewBox="0 0 245 56" fill="none" xmlns="http://www.w3.org/2000/svg">
<g clip-path="url(#clip0_3151_35094)">
<path fill-rule="evenodd" clip-rule="evenodd" d="M0 17.6723H8.81282C13.7146 17.6723 16.2777 20.2067 16.2777 23.319C16.2777 25.4675 15.0662 26.9267 13.3862 27.6985V27.7541C15.5346 28.5259 16.7462 30.2328 16.7462 32.4082C16.7462 35.5205 14.35 38.247 9.17179 38.247H0V17.6723ZM8.53821 25.8246C9.99744 25.8246 10.6597 25.0816 10.6597 24.2541C10.6597 23.4267 9.99923 22.6567 8.53821 22.6567H5.95V25.8246H8.53821ZM8.62077 33.2608C10.1626 33.2608 10.9074 32.5177 10.9074 31.5539C10.9074 30.59 10.1356 29.847 8.64949 29.847H5.95V33.2626H8.62077V33.2608ZM18.0115 29.8739V17.6723H24.0154V29.8182C24.0154 32.1049 25.1444 33.3164 27.0721 33.3164C28.9997 33.3164 30.2113 32.1049 30.2113 29.7913V17.6723H36.2438V29.8739C36.2438 35.0521 32.7744 38.7711 27.0721 38.7711C21.3697 38.7711 18.0097 35.0521 18.0097 29.8739H18.0115ZM51.5308 18.6631V23.9508C50.2367 23.0426 48.0326 22.409 46.2431 22.409C44.6187 22.409 43.7913 22.9331 43.7913 23.6205C43.7913 24.308 44.6995 24.667 46.3256 25.2449C49.0808 26.2087 52.8249 27.5028 52.8249 31.8823C52.8249 35.7934 49.8777 38.6849 44.6995 38.6849C42.0287 38.6849 39.5769 37.9131 38.062 36.8954V31.3313C39.55 32.5428 41.8079 33.5067 43.9833 33.5067C45.8285 33.5067 46.6828 32.8175 46.6828 32.0475C46.6828 31.0567 45.2774 30.6152 43.5974 30.0085C41.3933 29.2098 37.8969 27.7775 37.8969 23.7839C37.8969 20.1762 40.7346 17.229 45.8015 17.229C48.0326 17.229 50.0428 17.807 51.5308 18.6613V18.6631ZM54.3667 17.6723H60.3705V38.247H54.3667V17.6723ZM81.7169 38.247H75.9877L68.5785 27.2031H68.5515V38.247H62.851V17.6723H68.5803L75.9895 28.5241H76.0164V17.6723H81.7169V38.247ZM84.1956 17.6723H98.4074V23.0157H90.1995V25.4944H97.58V30.3423H90.1995V32.9036H98.4074V38.247H84.1956V17.6723ZM113.474 18.6631V23.9508C112.179 23.0426 109.975 22.409 108.186 22.409C106.562 22.409 105.734 22.9331 105.734 23.6205C105.734 24.308 106.642 24.667 108.268 25.2449C111.024 26.2087 114.768 27.5028 114.768 31.8823C114.768 35.7934 111.821 38.6849 106.642 38.6849C103.972 38.6849 101.52 37.9131 100.005 36.8954V31.3313C101.493 32.5428 103.751 33.5067 105.926 33.5067C107.771 33.5067 108.626 32.8175 108.626 32.0475C108.626 31.0567 107.22 30.6152 105.54 30.0085C103.336 29.2098 99.8397 27.7775 99.8397 23.7839C99.8397 20.1762 102.677 17.229 107.744 17.229C109.975 17.229 111.986 17.807 113.474 18.6613V18.6631ZM129.365 18.6631V23.9508C128.071 23.0426 125.867 22.409 124.078 22.409C122.453 22.409 121.626 22.9331 121.626 23.6205C121.626 24.308 122.534 24.667 124.16 25.2449C126.915 26.2087 130.66 27.5028 130.66 31.8823C130.66 35.7934 127.712 38.6849 122.534 38.6849C119.863 38.6849 117.412 37.9131 115.897 36.8954V31.3313C117.385 32.5428 119.643 33.5067 121.818 33.5067C123.663 33.5067 124.517 32.8175 124.517 32.0475C124.517 31.0567 123.112 30.6152 121.432 30.0085C119.228 29.2098 115.732 27.7775 115.732 23.7839C115.732 20.1762 118.569 17.229 123.636 17.229C125.867 17.229 127.877 17.807 129.365 18.6613V18.6631ZM137.616 38.2864H143.62V17.7136H137.616V38.2882V38.2864ZM164.963 17.7136H159.263V28.5654H159.236L151.826 17.7136H146.097V38.2882H151.798V27.2444H151.825L159.234 38.2882H164.963V17.7136ZM174.627 17.2721C169.558 17.2721 166.722 20.2193 166.722 23.827C166.722 27.8205 170.22 29.2528 172.423 30.0516C174.103 30.6582 175.508 31.098 175.508 32.0905C175.508 32.8623 174.654 33.5498 172.808 33.5498C170.633 33.5498 168.373 32.5859 166.887 31.3744V36.9385C168.402 37.958 170.854 38.728 173.525 38.728C178.703 38.728 181.65 35.8364 181.65 31.9254C181.65 27.5459 177.904 26.2518 175.151 25.288C173.526 24.71 172.616 24.3798 172.616 23.6636C172.616 22.9475 173.442 22.4521 175.068 22.4521C176.858 22.4521 179.062 23.0857 180.356 23.9939V18.7044C178.868 17.85 176.858 17.2721 174.627 17.2721ZM183.052 38.2864H189.056V17.7136H183.052V38.2882V38.2864ZM197.538 32.8605H198.696C201.808 32.8605 203.818 31.098 203.818 28.0126C203.818 24.9272 201.808 23.1377 198.696 23.1377H197.538V32.8605ZM209.878 28.0126C209.878 34.2103 205.195 38.2864 198.475 38.2864H191.534V17.7136H198.475C205.195 17.7136 209.878 21.8167 209.878 28.0144V28.0126ZM211.506 38.2864H225.718V32.9431H217.51V30.3818H224.89V25.5339H217.51V23.0552H225.718V17.7136H211.506V38.2882V38.2864ZM235.168 27.4346C236.683 27.4346 237.867 26.7185 237.867 25.2862C237.867 23.8539 236.683 23.1377 235.141 23.1377H233.874V27.4346H235.168ZM245 38.2864H237.921L234.01 31.9236H233.872V38.2864H227.868V17.7136H235.195C240.346 17.7136 243.925 20.0003 243.925 24.8752C243.925 26.8028 243.071 29.6118 239.655 31.0441L244.998 38.2882L245 38.2864Z" fill="white" fill-opacity="0.92"/>
</g>
<defs>
<clipPath id="clip0_3151_35094">
<rect width="245" height="21.5385" fill="white" transform="translate(0 17.2307)"/>
</clipPath>
</defs>
</svg>
